<svg width="680pt" height="680pt" viewBox="0 0 680 680" xmlns="http://www.w3.org/2000/svg"><path fill="#ff6e00" d="M317.53 7.69c93.76-6.68 189.75 28.98 255.85 95.93 42.27 41.16 72.68 94.21 87.74 151.2 13.7 51.76 14.62 106.84 2.53 159-13.36 58.69-43.17 113.57-85.27 156.59C517.13 634.78 428.86 672.37 340 671.99c-84.45.58-168.58-32.99-229.36-91.64C45.08 519.02 6.47 429.83 7 340c-.82-90.4 38.06-180.26 104.14-241.86 55.38-53.07 129.84-85.65 206.39-90.45m22.89 102.68c-41.18 94.86-82.23 189.77-123.38 284.65-1.77 4.07-4.2 8.38-3.06 12.98 1.08 6.06 6.96 10.52 13.06 10.33 33.15.12 66.3-.01 99.45.07.02 49.53-.01 99.06.01 148.59-.18 6.68 5.85 12.68 12.51 12.56 5.34.26 10.39-3.29 12.29-8.23 41.75-96.29 83.46-192.6 125.19-288.91 2.89-5.64.93-13.17-4.47-16.54-3.79-2.7-8.65-2.03-13.02-2.1-31.26.02-62.51.02-93.77 0-.03-48.91.01-97.83-.02-146.74.32-5.28-2.23-10.78-7.1-13.17-6.37-3.47-15.08-.25-17.69 6.51z"/><path fill="#fff" d="M340.42 110.37c2.61-6.76 11.32-9.98 17.69-6.51 4.87 2.39 7.42 7.89 7.1 13.17.03 48.91-.01 97.83.02 146.74 31.26.02 62.51.02 93.77 0 4.37.07 9.23-.6 13.02 2.1 5.4 3.37 7.36 10.9 4.47 16.54-41.73 96.31-83.44 192.62-125.19 288.91-1.9 4.94-6.95 8.49-12.29 8.23-6.66.12-12.69-5.88-12.51-12.56-.02-49.53.01-99.06-.01-148.59-33.15-.08-66.3.05-99.45-.07-6.1.19-11.98-4.27-13.06-10.33-1.14-4.6 1.29-8.91 3.06-12.98 41.15-94.88 82.2-189.79 123.38-284.65z"/></svg>