<svg viewBox="0 0 503 503" xmlns="http://www.w3.org/2000/svg"><path fill="#ff6e00" d="M245.25 1.28c43.46-1.22 87.11 9.46 125.34 30.09 49.95 27.03 90.36 71.48 112.14 123.98 16.29 38.76 22.43 81.69 17.82 123.47-4.36 39.86-18.45 78.63-40.84 111.9-15.47 22.97-34.75 43.39-56.74 60.23-30.88 23.49-67.3 39.65-105.44 46.82-44.16 8.26-90.55 4.4-132.66-11.33-49.05-17.98-91.9-52.01-121.08-95.29-22.24-33.09-36.55-71.53-41.02-111.18-4.8-42.69 1.36-86.62 18.37-126.12C45.47 96.06 92.51 48.31 149.82 22.9c29.96-13.44 62.6-20.79 95.43-21.62m7 78.02c-31.49 72.58-62.94 145.18-94.38 217.78-3.08 5.83 1.5 13.52 8.02 13.8 25.31.29 50.64.01 75.96.14.01 37.33-.02 74.67.02 112.01-.08 3.88 2.7 7.44 6.27 8.77 4.79 1.82 10.57-.86 12.33-5.66 31.49-72.69 63-145.38 94.5-218.07 2.84-6.05-2.27-13.86-9.01-13.41-24.99-.04-49.99 0-74.98-.02-.02-36.88 0-73.75-.01-110.62.19-4.11-1.97-8.45-5.89-10.07-4.77-2.23-11.06.38-12.83 5.35z"/><path fill="#fff" d="M252.25 79.3c1.77-4.97 8.06-7.58 12.83-5.35 3.92 1.62 6.08 5.96 5.89 10.07.01 36.87-.01 73.74.01 110.62 24.99.02 49.99-.02 74.98.02 6.74-.45 11.85 7.36 9.01 13.41-31.5 72.69-63.01 145.38-94.5 218.07-1.76 4.8-7.54 7.48-12.33 5.66-3.57-1.33-6.35-4.89-6.27-8.77-.04-37.34-.01-74.68-.02-112.01-25.32-.13-50.65.15-75.96-.14-6.52-.28-11.1-7.97-8.02-13.8 31.44-72.6 62.89-145.2 94.38-217.78z"/></svg>